<?xml version="1.0" encoding="utf-8"?>
<!-- Generator: Adobe Illustrator 18.1.0, SVG Export Plug-In . SVG Version: 6.00 Build 0)  -->
<svg version="1.1" id="Layer_1" xmlns="http://www.w3.org/2000/svg" xmlns:xlink="http://www.w3.org/1999/xlink" x="0px" y="0px"
	 viewBox="0 0 180 35.3" enable-background="new 0 0 180 35.3" xml:space="preserve">
<rect x="45" y="6.8" fill="none" width="132" height="26.5"/>
<text transform="matrix(1 0 0 1 45 25.1279)"><tspan x="0" y="0" fill="#E22962" font-family="'Roboto-Bold'" font-size="24">dana</tspan><tspan x="52.9" y="0" fill="#444444" font-family="'Roboto-Regular'" font-size="24">werpny</tspan></text>
<path fill="#00C6C6" d="M19.8,0c-0.6,1.5-1,3-1.2,4.5C18,4.6,17.5,4.8,16.9,5c-0.5,0.2-1.1,0.4-1.6,0.6c-1-1.1-2.2-2.2-3.4-3.1
	C11.1,3,10.5,3.5,9.8,4c0.4,1.6,0.9,3,1.7,4.4c-0.4,0.4-0.8,0.9-1.1,1.3c-0.4,0.4-0.6,1-0.9,1.5c-1.5-0.3-3-0.5-4.6-0.5
	c-0.3,0.8-0.6,1.6-0.8,2.5c1.2,1,2.6,1.9,3.9,2.6c-0.1,0.6-0.1,1.1-0.1,1.7c0,0.6,0,1.2,0.1,1.7c-1.4,0.6-2.7,1.4-4,2.3
	c0.2,0.9,0.5,1.7,0.8,2.5c1.6,0.1,3.2,0,4.7-0.2c0.3,0.5,0.6,1,0.9,1.5c0.3,0.5,0.7,0.9,1.1,1.3c-0.8,1.3-1.4,2.7-1.9,4.2
	c0.7,0.6,1.4,1.1,2.1,1.6c1.3-0.9,2.6-1.8,3.7-2.9c0.5,0.3,1.1,0.4,1.6,0.6c0.6,0.2,1.1,0.3,1.7,0.4c0.2,1.5,0.5,3,0.9,4.5
	c0.9,0.1,1.7,0.1,2.6,0c0.6-1.5,1-3,1.2-4.5c0.6-0.1,1.1-0.3,1.7-0.4c0.5-0.2,1.1-0.4,1.6-0.6c1,1.1,2.2,2.2,3.4,3.1
	c0.8-0.4,1.4-1,2.1-1.5c-0.4-1.6-0.9-3-1.7-4.4c0.4-0.4,0.8-0.9,1.1-1.3c0.4-0.4,0.6-1,0.9-1.5c1.5,0.3,3,0.5,4.6,0.5
	c0.3-0.8,0.6-1.6,0.8-2.5c-1.2-1-2.6-1.9-3.9-2.6c0.1-0.6,0.1-1.1,0.1-1.7c0-0.6,0-1.2-0.1-1.7c1.4-0.6,2.7-1.4,4-2.3
	c-0.2-0.9-0.5-1.7-0.8-2.5c-1.6-0.1-3.2,0-4.7,0.2c-0.3-0.5-0.6-1-0.9-1.5c-0.3-0.5-0.7-0.9-1.1-1.3c0.8-1.3,1.4-2.7,1.9-4.2
	c-0.7-0.6-1.4-1.1-2.1-1.6c-1.3,0.9-2.6,1.8-3.7,2.9C26.1,5.3,25.6,5.2,25,5c-0.6-0.2-1.1-0.3-1.7-0.4c-0.2-1.5-0.5-3-0.9-4.5
	C21.6,0,20.7,0,19.8,0z M23.5,9.8c1.6,0.5,3.1,1.6,4.1,3c1,1.4,1.5,3.1,1.6,4.8c0,1.7-0.5,3.4-1.6,4.8c-1,1.4-2.5,2.4-4.1,3
	c-1.6,0.5-3.4,0.5-5,0c-1.6-0.5-3.1-1.6-4.1-3c-1-1.4-1.5-3.1-1.6-4.8c0-1.7,0.5-3.4,1.6-4.8c1-1.4,2.5-2.4,4.1-3
	C20.1,9.2,21.9,9.2,23.5,9.8z"/>
</svg>
