<?xml version="1.0" encoding="utf-8"?>
<!-- Generator: Adobe Illustrator 18.1.0, SVG Export Plug-In . SVG Version: 6.00 Build 0)  -->
<svg version="1.1" id="Layer_1" xmlns="http://www.w3.org/2000/svg" xmlns:xlink="http://www.w3.org/1999/xlink" x="0px" y="0px"
	 viewBox="396.9 333.9 168.1 30.1" enable-background="new 396.9 333.9 168.1 30.1" xml:space="preserve">
<rect x="240" y="222.1" fill="none" width="704" height="141.3"/>
<text transform="matrix(1 0 0 1 432.4766 357.3144)" fill="#00C6C6" font-family="'Roboto-Bold'" font-size="24.1957">dana</text>
<text transform="matrix(1 0 0 1 485.8076 357.3144)" fill="#888888" font-family="'Roboto-Regular'" font-size="24.1957">werpny</text>
<path fill="#00C6C6" d="M411.1,333.9c-0.5,1.3-0.9,2.7-1.1,4c-0.5,0.1-1,0.3-1.5,0.4c-0.4,0.2-1,0.4-1.4,0.5c-0.9-1-2-2-3.1-2.8
	c-0.7,0.4-1.3,0.9-1.9,1.3c0.4,1.4,0.8,2.7,1.5,4c-0.4,0.4-0.7,0.8-1,1.2c-0.4,0.4-0.5,0.9-0.8,1.3c-1.3-0.3-2.7-0.4-4.1-0.4
	c-0.3,0.7-0.5,1.4-0.7,2.2c1.1,0.9,2.3,1.7,3.5,2.3c-0.1,0.5-0.1,1-0.1,1.5c0,0.5,0,1.1,0.1,1.5c-1.3,0.5-2.4,1.3-3.6,2.1
	c0.2,0.8,0.4,1.5,0.7,2.2c1.4,0.1,2.9,0,4.2-0.2c0.3,0.4,0.5,0.9,0.8,1.3c0.3,0.4,0.6,0.8,1,1.2c-0.7,1.2-1.3,2.4-1.7,3.8
	c0.6,0.5,1.3,1,1.9,1.4c1.2-0.8,2.3-1.6,3.3-2.6c0.4,0.3,1,0.4,1.4,0.5c0.5,0.2,1,0.3,1.5,0.4c0.2,1.3,0.4,2.7,0.8,4
	c0.8,0.1,1.5,0.1,2.3,0c0.5-1.3,0.9-2.7,1.1-4c0.5-0.1,1-0.3,1.5-0.4c0.4-0.2,1-0.4,1.4-0.5c0.9,1,2,2,3.1,2.8
	c0.7-0.4,1.3-0.9,1.9-1.3c-0.4-1.4-0.8-2.7-1.5-4c0.4-0.4,0.7-0.8,1-1.2c0.4-0.4,0.5-0.9,0.8-1.3c1.3,0.3,2.7,0.4,4.1,0.4
	c0.3-0.7,0.5-1.4,0.7-2.2c-1.1-0.9-2.3-1.7-3.5-2.3c0.1-0.5,0.1-1,0.1-1.5c0-0.5,0-1.1-0.1-1.5c1.3-0.5,2.4-1.3,3.6-2.1
	c-0.2-0.8-0.4-1.5-0.7-2.2c-1.4-0.1-2.9,0-4.2,0.2c-0.3-0.4-0.5-0.9-0.8-1.3s-0.6-0.8-1-1.2c0.7-1.2,1.3-2.4,1.7-3.8
	c-0.6-0.5-1.3-1-1.9-1.4c-1.2,0.8-2.3,1.6-3.3,2.6c-0.4-0.3-0.9-0.4-1.4-0.5c-0.5-0.2-1-0.3-1.5-0.4c-0.2-1.3-0.4-2.7-0.8-4
	C412.7,333.9,411.9,333.9,411.1,333.9z M414.4,342.7c1.4,0.4,2.8,1.4,3.7,2.7s1.3,2.8,1.4,4.3c0,1.5-0.4,3.1-1.4,4.3
	c-0.9,1.3-2.2,2.2-3.7,2.7c-1.4,0.4-3.1,0.4-4.5,0c-1.4-0.4-2.8-1.4-3.7-2.7c-0.9-1.3-1.3-2.8-1.4-4.3c0-1.5,0.4-3.1,1.4-4.3
	c0.9-1.3,2.2-2.2,3.7-2.7C411.4,342.1,413,342.1,414.4,342.7z"/>
</svg>
